# xmcd CD database file
#
# Track frame offsets:
#	150
#	9644
#	32194
#	46540
#	70036
#	82234
#	109008
#	134107
#	146048
#	159158
#	171759
#	186037
#	210584
#	232554
#	244711
#	258890
#	277645
#	293438
#
# Disc length: 4177 seconds
#
# Revision: 4
# Processed by: cddbd v1.5.2PL0 Copyright (c) Steve Scherf et al.
# Submitted via: CDex 1.79
#
DISCID=e8104f12
DTITLE=Various Artist - The Very Best of Smooth Jazz - Disc 1
DYEAR=2003
DGENRE=Smooth Jazz
TTITLE0=Bill Withers/Ain't No Sunshine
TTITLE1=Grover Washington Jr. and Bill Withers/Just the Two of Us
TTITLE2=Denzal Sinclaire/Blackbird
TTITLE3=Astrud Gilberto and Stan Getz/The Girl from Ipanema
TTITLE4=The Temptations/My Girl
TTITLE5=Lionel Ritchie/Love Will Find A Way
TTITLE6=Sting and Guy Barker/You Don't Know What Love Is
TTITLE7=Tamba Trio/Mas Que Nada
TTITLE8=Nina Simone/Feelin' Good
TTITLE9=Dinah Washington/Mad About the Boy
TTITLE10=Hill St. Soul/Until You Come Back to Me
TTITLE11=John Scofield/After the Fact
TTITLE12=Larry Carlton/Minute by Minute
TTITLE13=Sarah Vaughan/Make Yourself Comfortable
TTITLE14=Dorothy Dandridge/Smooth Operator
TTITLE15=Freddy Ravel/Sunny Side Up
TTITLE16=Richard Elliot/Crush
TTITLE17=Christian McBride/Aja
EXTD=YEAR: 2003
EXTT0=
EXTT1=
EXTT2=
EXTT3=
EXTT4=
EXTT5=
EXTT6=
EXTT7=
EXTT8=
EXTT9=
EXTT10=
EXTT11=
EXTT12=
EXTT13=
EXTT14=
EXTT15=
EXTT16=
EXTT17=
PLAYORDER=
